<svg width="108.38mm" height="144.48mm" version="1.1" viewBox="0 0 108.38 144.48" xmlns="http://www.w3.org/2000/svg"><g transform="translate(7.327 -106.06)"><path d="m2.2779 250.25c-4.5292-0.88452-8.4248-4.8828-9.3112-9.5565-0.39175-2.0657-0.39175-122.7 0-124.76 0.9094-4.7952 4.7994-8.694 9.5614-9.5827 2.1442-0.40017 65.476-0.38747 66.548 0.0134 1.0109 0.37799 30.987 30.293 31.556 31.491 0.37226 0.78448 0.42401 7.0232 0.42401 51.118 0 32.463-0.10034 50.763-0.28371 51.745-0.88872 4.7619-4.7874 8.652-9.5827 9.5614-1.8818 0.35687-87.079 0.33246-88.911-0.0255zm88.086-5.9325c2.0795-0.44598 4.0032-2.3696 4.4491-4.4491 0.22574-1.0526 0.31566-15.175 0.31566-49.577v-48.105h-9.4159c-5.1788 0-10.091-0.12797-10.915-0.28438-4.7952-0.9094-8.694-4.7994-9.5827-9.5614-0.15604-0.8361-0.28371-5.7574-0.28371-10.936v-9.4159h-30.043c-21.085 0-30.482 0.0941-31.515 0.31566-2.0795 0.44598-4.0032 2.3696-4.4491 4.4491-0.44869 2.0922-0.44869 121.02 0 123.11 0.41853 1.9515 2.3937 4.0179 4.233 4.4283 1.8451 0.41173 85.291 0.43163 87.207 0.0208zm-72.368-18.07c-2.1665-0.29704-4.8517-1.7432-5.8848-3.1692-2.0922-2.8881-1.6657-6.2483 1.163-9.163 1.8738-1.9308 5.0485-3.8208 12.428-7.3987 10.721-5.1982 9.8464-4.6541 10.64-6.6156 0.87369-2.1594 5.729-16.486 5.7283-16.902-2.8e-4 -0.17225-0.7647-1.3927-1.6986-2.7121-2.0225-2.8572-4.3213-7.3842-4.9443-9.7367-0.83888-3.1677-0.49955-8.4511 0.72649-11.311 0.66625-1.5543 2.3281-3.383 3.7811-4.1607 0.98243-0.52586 1.5962-0.6137 4.2526-0.60856 2.6414 5e-3 3.278 0.098 4.2684 0.62263 2.8759 1.5235 4.3092 4.9599 4.3287 10.378 0.0101 2.8007-0.73684 6.1968-2.7611 12.554l-1.1218 3.523 1.1052 1.32c3.0157 3.6019 11.54 11.531 12.396 11.531 0.15035 0 1.5743-0.20238 3.1643-0.44972 3.4111-0.53065 8.7509-0.57729 11.188-0.0977 2.4027 0.4727 4.4969 1.7832 5.385 3.3697 0.60436 1.0797 0.70677 1.6083 0.68344 3.5278-0.0174 1.4337-0.1976 2.6406-0.49364 3.3065-1.1488 2.5841-3.9808 4.148-7.6373 4.2175-1.8981 0.0361-2.2328-0.0524-4.4264-1.1697-2.4754-1.2609-4.446-2.5136-7.6754-4.8791l-1.9157-1.4032-1.7532 0.33228c-3.656 0.69291-11.186 2.6485-14.951 3.8832l-3.9145 1.2835-0.75718 1.4044c-3.0265 5.6135-6.2346 10.05-9.5756 13.242-2.6562 2.5378-4.3803 3.7576-6.5142 4.6091-2.0261 0.80847-3.1617 0.95519-5.2147 0.6737zm4.1663-6.7532c0.75258-0.47728 2.13-1.5885 3.0609-2.4694 1.7931-1.6968 5.1047-5.6779 4.8963-5.8863-0.20105-0.20105-8.6333 4.1017-10.626 5.4222-1.0089 0.66856-2.0654 1.6093-2.3476 2.0906l-0.51312 0.87504 0.93645 0.40675c1.5623 0.67859 3.0561 0.53583 4.5932-0.43892zm54.476-17.653c0.25218-0.25218 0.42-0.72843 0.37294-1.0583-0.12705-0.89047-1.6197-1.272-5.0245-1.2841l-2.9633-0.0106 1.4111 0.89335c0.77611 0.49134 1.8556 1.1189 2.3989 1.3945 1.263 0.64078 3.1961 0.67388 3.8049 0.0651zm-29.01-4.1654c1.9883-0.5421 4.3424-1.14 5.2312-1.3287l1.6161-0.34308-3.8148-3.7666c-2.0981-2.0716-3.8626-3.7666-3.921-3.7666-0.0584 0-0.83393 2.1908-1.7234 4.8683-0.88946 2.6776-1.684 5.0491-1.7658 5.2701-0.10307 0.27871-9e-3 0.34823 0.30697 0.22697 0.25055-0.0961 2.0823-0.61835 4.0707-1.1604zm-1.5587-27.549c0.75684-2.8264 0.85073-3.5682 0.72695-5.7435-0.18188-3.1963-0.65818-3.954-2.564-4.079-2.3045-0.15119-3.2885 1.5226-3.2856 5.5892 8.4e-4 1.1642 0.17826 2.6991 0.39433 3.4109 0.39413 1.2985 1.8383 4.3313 2.6587 5.5834l0.4386 0.66937 0.38095-1.0924c0.20953-0.60083 0.77205-2.5529 1.2501-4.338zm34.806-43.746-9.8763-9.8796-0.0759 6.7046c-0.0945 8.346 0.0617 9.2573 1.9016 11.097 0.97027 0.97026 1.6894 1.4218 2.5818 1.6209 0.68029 0.15181 4.4112 0.28962 8.2909 0.30624l7.054 0.0302z" style="stroke-width:.28222"/></g></svg>
