<svg width="103.19mm" height="135.47mm" version="1.1" viewBox="0 0 103.19 135.47" xmlns="http://www.w3.org/2000/svg"><g transform="translate(75.028 -73.54)"><path transform="matrix(.26458 0 0 .26458 -75.028 73.54)" d="m11.771 0-3.7676 2.1172c-2.0725 1.1648-4.7219 3.8142-5.8867 5.8867l-2.1172 3.7676v488.46l2.1738 3.8672c1.3529 2.4071 3.713 4.629 6.25 5.8848 4.0432 1.9997 5.5542 2.0187 186.51 2.0195 182.17 7.9e-4 182.44-3e-3 186.69-2.0606 3.0897-1.4957 4.8188-3.2247 6.3144-6.3144 2.0571-4.2496 2.0606-4.5182 2.0606-187.47 0-162.74-0.17249-183.63-1.541-186.93-2.109-5.0891-121.25-124.44-127.03-127.24-3.9818-1.9353-6.599-1.9766-126.86-1.9766zm18.229 30h210v54.113c0 53.781 0.0129 54.138 2.1836 58 1.392 2.4767 3.6832 4.612 6.3164 5.8867 3.9744 1.9241 6.1751 2 57.816 2h53.684v332h-330v-226zm240 21.512 34 33.988c18.7 18.694 34 34.104 34 34.244s-15.3 0.25586-34 0.25586h-34v-34.244zm-178.23 168.49-3.7676 2.1172c-2.0726 1.1648-4.7219 3.8142-5.8867 5.8867-2.1149 3.7633-2.1172 3.8915-2.1172 96.996v93.229l2.1738 3.8672c1.3529 2.4071 3.713 4.629 6.25 5.8848 4.0081 1.9846 5.7891 2.0187 106.51 2.0195 101.39 7.6e-4 102.48-0.0215 106.69-2.0606 3.0897-1.4957 4.8187-3.2247 6.3144-6.3144 2.0336-4.2028 2.0606-5.4019 2.0606-96.625 0-90.326-0.0441-92.46-2-96.5-1.2747-2.6332-3.41-4.9244-5.8867-6.3164l-3.8848-2.1836h-103.23zm18.229 30h70v30h-70v-15zm100 0h70v30h-70v-15zm-100 60h70v30h-70v-15zm100 0h70v30h-70v-15zm-100 60h70v30h-70v-15zm100 0h70v30h-70v-15z" style="fill:#000000"/></g></svg>
